<svg width="110" height="110" viewBox="0 0 110 110" fill="none" xmlns="http://www.w3.org/2000/svg">
<circle cx="55" cy="55" r="52.5" stroke="#AB45E7" stroke-width="4"/>
<path d="M33 47.0811V45.6412C33 44.4484 33.9444 43.4815 35.1094 43.4815H66.75V39.1619C66.75 37.2391 69.0263 36.2785 70.351 37.6347L77.3822 44.8339C78.2059 45.6774 78.2059 47.0449 77.3822 47.8883L70.351 55.0875C69.0313 56.4385 66.75 55.4912 66.75 53.5604V49.2409H35.1094C33.9444 49.2409 33 48.2739 33 47.0811ZM75.8906 60.7596H44.25V56.4401C44.25 54.522 41.977 53.5532 40.649 54.9129L33.6178 62.1121C32.7941 62.9556 32.7941 64.3231 33.6178 65.1665L40.649 72.3657C41.9699 73.718 44.25 72.7677 44.25 70.8386V66.519H75.8906C77.0556 66.519 78 65.5521 78 64.3593V62.9194C78 61.7266 77.0556 60.7596 75.8906 60.7596Z" fill="#AB45E7"/>
</svg>
