<svg width="110" height="109" viewBox="0 0 110 109" fill="none" xmlns="http://www.w3.org/2000/svg">
<circle cx="55" cy="54.5" r="52.5" stroke="#AB45E7" stroke-width="4"/>
<path d="M33 46.5811V45.1412C33 43.9484 33.9444 42.9815 35.1094 42.9815H66.75V38.6619C66.75 36.7391 69.0263 35.7785 70.351 37.1347L77.3822 44.3339C78.2059 45.1774 78.2059 46.5449 77.3822 47.3883L70.351 54.5875C69.0313 55.9385 66.75 54.9912 66.75 53.0604V48.7409H35.1094C33.9444 48.7409 33 47.7739 33 46.5811ZM75.8906 60.2596H44.25V55.9401C44.25 54.022 41.977 53.0532 40.649 54.4129L33.6178 61.6121C32.7941 62.4556 32.7941 63.8231 33.6178 64.6665L40.649 71.8657C41.9699 73.218 44.25 72.2677 44.25 70.3386V66.019H75.8906C77.0556 66.019 78 65.0521 78 63.8593V62.4194C78 61.2266 77.0556 60.2596 75.8906 60.2596Z" fill="#7205F6"/>
</svg>
