<svg width="110" height="110" viewBox="0 0 110 110" fill="none" xmlns="http://www.w3.org/2000/svg">
<circle cx="55" cy="55" r="52.5" stroke="#AB45E7" stroke-width="4"/>
<path d="M71.1155 38.5L78.5 51.625H70.2505L64.604 38.5H71.1155ZM60.671 38.5L66.3175 51.625H43.6825L49.329 38.5H60.671ZM38.8845 38.5H45.396L39.7495 51.625H31.5L38.8845 38.5ZM31.5 54.25H39.7168L49.7533 74.8973C49.8757 75.1516 49.533 75.3812 49.3453 75.168L31.5 54.25ZM43.5927 54.25H66.4073L55.2285 80.3523C55.1469 80.5492 54.8613 80.5492 54.7797 80.3523L43.5927 54.25ZM60.2467 74.8973L70.2832 54.25H78.5L60.6547 75.1598C60.467 75.3812 60.1243 75.1516 60.2467 74.8973Z" fill="#AB45E7"/>
</svg>
