<svg width="110" height="109" viewBox="0 0 110 109" fill="none" xmlns="http://www.w3.org/2000/svg">
<circle cx="55" cy="54.5" r="52.5" stroke="#AB45E7" stroke-width="4"/>
<path d="M71.1155 38L78.5 51.125H70.2505L64.604 38H71.1155ZM60.671 38L66.3175 51.125H43.6825L49.329 38H60.671ZM38.8845 38H45.396L39.7495 51.125H31.5L38.8845 38ZM31.5 53.75H39.7168L49.7533 74.3973C49.8757 74.6516 49.533 74.8812 49.3453 74.668L31.5 53.75ZM43.5927 53.75H66.4073L55.2285 79.8523C55.1469 80.0492 54.8613 80.0492 54.7797 79.8523L43.5927 53.75ZM60.2467 74.3973L70.2832 53.75H78.5L60.6547 74.6598C60.467 74.8812 60.1243 74.6516 60.2467 74.3973V74.3973Z" fill="#7205F6"/>
</svg>
