<svg width="165" height="164" viewBox="0 0 165 164" fill="none" xmlns="http://www.w3.org/2000/svg">
<path d="M83.5 82C90.9172 82 96.9286 75.9566 96.9286 68.5C96.9286 61.0434 90.9172 55 83.5 55C76.0828 55 70.0714 61.0434 70.0714 68.5C70.0714 75.9566 76.0828 82 83.5 82ZM93.5504 85.4383L88.5357 105.625L85.1786 91.2812L88.5357 85.375H78.4643L81.8214 91.2812L78.4643 105.625L73.4496 85.4383C65.9694 85.7969 60 91.9457 60 99.55V103.937C60 106.732 62.2556 109 65.0357 109H101.964C104.744 109 107 106.732 107 103.937V99.55C107 91.9457 101.031 85.7969 93.5504 85.4383Z" fill="#AB45E7"/>
<rect x="3.7713" y="82.2356" width="112.299" height="111.551" rx="10" transform="rotate(-45 3.7713 82.2356)" stroke="#7205F6" stroke-width="4"/>
</svg>
