<svg width="165" height="164" viewBox="0 0 165 164" fill="none" xmlns="http://www.w3.org/2000/svg">
<path d="M82.5 52C66.2036 52 53 65.2036 53 81.5C53 97.7964 66.2036 111 82.5 111C98.7964 111 112 97.7964 112 81.5C112 65.2036 98.7964 52 82.5 52ZM66.3226 77.6222C66.7151 72.6143 70.1528 69.129 72.9839 69.129C75.8149 69.129 79.2526 72.6143 79.6452 77.6222C79.7284 78.6452 78.3605 79.0377 77.8728 78.1575L76.7427 76.1353C75.8268 74.5056 74.4589 73.5659 72.9958 73.5659C71.5327 73.5659 70.1647 74.5056 69.2488 76.1353L68.1187 78.1575C67.6073 79.0377 66.2393 78.6333 66.3226 77.6222ZM96.1556 92.2294C92.7655 96.2976 87.7933 98.629 82.5 98.629C77.2067 98.629 72.2345 96.2976 68.8444 92.2294C67.2385 90.2905 70.1528 87.8639 71.7706 89.7909C74.4351 92.9907 78.3367 94.8107 82.5 94.8107C86.6633 94.8107 90.5649 92.9788 93.2294 89.7909C94.8472 87.8639 97.7615 90.3024 96.1556 92.2294ZM96.8931 78.1575L95.7631 76.1353C94.8472 74.5056 93.4792 73.5659 92.0161 73.5659C90.553 73.5659 89.1851 74.5056 88.2692 76.1353L87.1391 78.1575C86.6514 79.0258 85.2835 78.6333 85.3667 77.6222C85.7593 72.6143 89.197 69.129 92.028 69.129C94.8591 69.129 98.2968 72.6143 98.6893 77.6222C98.7607 78.6452 97.3808 79.0377 96.8931 78.1575Z" fill="#AB45E7"/>
<rect x="3.71393" y="82.2356" width="112.299" height="111.551" rx="10" transform="rotate(-45 3.71393 82.2356)" stroke="#7205F6" stroke-width="4"/>
</svg>
