<?xml version="1.0" standalone="no"?>
<!DOCTYPE svg PUBLIC "-//W3C//DTD SVG 20010904//EN"
 "http://www.w3.org/TR/2001/REC-SVG-20010904/DTD/svg10.dtd">
<svg version="1.0" xmlns="http://www.w3.org/2000/svg"
 width="287.000000pt" height="287.000000pt" viewBox="0 0 287.000000 287.000000"
 preserveAspectRatio="xMidYMid meet">
<metadata>
Created by potrace 1.14, written by Peter Selinger 2001-2017
</metadata>
<g transform="translate(0.000000,287.000000) scale(0.100000,-0.100000)"
fill="#000000" stroke="none">
<path d="M135 2840 c-66 -32 -105 -78 -124 -145 -9 -30 -11 -359 -9 -1275 2
-679 6 -1242 9 -1250 33 -90 108 -155 192 -165 29 -3 603 -5 1277 -3 l1225 3
51 34 c28 18 64 54 80 80 l29 46 0 1270 0 1270 -33 50 c-37 56 -80 88 -138
104 -27 8 -417 11 -1269 11 l-1230 -1 -60 -29z"/>
</g>
</svg>
