<?xml version="1.0" standalone="no"?>
<!DOCTYPE svg PUBLIC "-//W3C//DTD SVG 20010904//EN"
 "http://www.w3.org/TR/2001/REC-SVG-20010904/DTD/svg10.dtd">
<svg version="1.0" xmlns="http://www.w3.org/2000/svg"
 width="147.000000pt" height="147.000000pt" viewBox="0 0 147.000000 147.000000"
 preserveAspectRatio="xMidYMid meet">
<metadata>
Created by potrace 1.14, written by Peter Selinger 2001-2017
</metadata>
<g transform="translate(0.000000,147.000000) scale(0.100000,-0.100000)"
fill="#000000" stroke="none">
<path d="M554 1436 c-167 -44 -287 -122 -401 -261 -48 -58 -108 -180 -129
-260 -25 -96 -25 -285 0 -375 72 -259 284 -466 541 -526 104 -24 305 -15 400
19 301 106 495 376 496 687 0 52 -2 106 -5 120 -4 14 -8 37 -11 53 -35 189
-193 391 -379 482 -119 59 -188 76 -316 80 -86 3 -122 0 -196 -19z m311 -11
c271 -52 497 -271 558 -540 29 -126 17 -300 -30 -416 -52 -132 -181 -282 -302
-353 -196 -114 -445 -128 -646 -37 -323 147 -489 498 -396 838 69 249 283 450
538 503 84 17 203 20 278 5z"/>
<path d="M484 1193 c4 -12 35 -72 70 -134 62 -112 90 -163 168 -306 l39 -72
-53 -76 c-29 -42 -66 -96 -83 -119 -16 -24 -39 -56 -50 -72 -11 -16 -45 -66
-77 -111 -31 -45 -50 -79 -41 -76 8 3 76 44 150 90 74 46 149 92 166 102 39
23 410 252 416 257 5 5 2 8 -364 278 -176 129 -326 241 -334 247 -11 10 -12 8
-7 -8z"/>
<path d="M293 1125 c8 -16 25 -52 37 -80 44 -97 78 -171 139 -299 33 -70 61
-132 61 -137 0 -4 4 -10 8 -13 10 -6 92 70 92 85 0 9 -308 429 -338 459 -12
13 -12 11 1 -15z"/>
</g>
</svg>
